<mxfile host="app.diagrams.net" agent="Mozilla/5.0 (Windows NT 10.0; Win64; x64) AppleWebKit/537.36 (KHTML, like Gecko) Chrome/128.0.0.0 Safari/537.36" version="24.7.14">
  <diagram name="PÃ¡gina-1" id="36wvoiHaxB3Uw1BcAj-P">
    <mxGraphModel dx="912" dy="512" grid="1" gridSize="10" guides="1" tooltips="1" connect="1" arrows="1" fold="1" page="1" pageScale="1" pageWidth="827" pageHeight="1169" math="0" shadow="0">
      <root>
        <mxCell id="0" />
        <mxCell id="1" parent="0" />
        <mxCell id="N8_u_hGt2kkmTam4svqG-57" value="ShowCategories" style="shape=table;startSize=30;container=1;collapsible=1;childLayout=tableLayout;fixedRows=1;rowLines=0;fontStyle=1;align=center;resizeLast=1;html=1;whiteSpace=wrap;" vertex="1" parent="1">
          <mxGeometry x="25" y="70" width="305" height="100" as="geometry" />
        </mxCell>
        <mxCell id="N8_u_hGt2kkmTam4svqG-58" value="" style="shape=tableRow;horizontal=0;startSize=0;swimlaneHead=0;swimlaneBody=0;fillColor=none;collapsible=0;dropTarget=0;points=[[0,0.5],[1,0.5]];portConstraint=eastwest;top=0;left=0;right=0;bottom=0;html=1;" vertex="1" parent="N8_u_hGt2kkmTam4svqG-57">
          <mxGeometry y="30" width="305" height="30" as="geometry" />
        </mxCell>
        <mxCell id="N8_u_hGt2kkmTam4svqG-59" value="Responsability" style="shape=partialRectangle;connectable=0;fillColor=none;top=0;left=0;bottom=0;right=0;fontStyle=1;overflow=hidden;html=1;whiteSpace=wrap;" vertex="1" parent="N8_u_hGt2kkmTam4svqG-58">
          <mxGeometry width="155" height="30" as="geometry">
            <mxRectangle width="155" height="30" as="alternateBounds" />
          </mxGeometry>
        </mxCell>
        <mxCell id="N8_u_hGt2kkmTam4svqG-60" value="Collaborators" style="shape=partialRectangle;connectable=0;fillColor=none;top=0;left=0;bottom=0;right=0;align=left;spacingLeft=6;fontStyle=5;overflow=hidden;html=1;whiteSpace=wrap;" vertex="1" parent="N8_u_hGt2kkmTam4svqG-58">
          <mxGeometry x="155" width="150" height="30" as="geometry">
            <mxRectangle width="150" height="30" as="alternateBounds" />
          </mxGeometry>
        </mxCell>
        <mxCell id="N8_u_hGt2kkmTam4svqG-61" value="" style="shape=tableRow;horizontal=0;startSize=0;swimlaneHead=0;swimlaneBody=0;fillColor=none;collapsible=0;dropTarget=0;points=[[0,0.5],[1,0.5]];portConstraint=eastwest;top=0;left=0;right=0;bottom=1;html=1;" vertex="1" parent="N8_u_hGt2kkmTam4svqG-57">
          <mxGeometry y="60" width="305" height="30" as="geometry" />
        </mxCell>
        <mxCell id="N8_u_hGt2kkmTam4svqG-62" value="Provides all the catalog information&amp;nbsp;" style="shape=partialRectangle;connectable=0;fillColor=none;top=0;left=0;bottom=0;right=0;fontStyle=1;overflow=hidden;html=1;whiteSpace=wrap;" vertex="1" parent="N8_u_hGt2kkmTam4svqG-61">
          <mxGeometry width="155" height="30" as="geometry">
            <mxRectangle width="155" height="30" as="alternateBounds" />
          </mxGeometry>
        </mxCell>
        <mxCell id="N8_u_hGt2kkmTam4svqG-63" value="" style="shape=partialRectangle;connectable=0;fillColor=none;top=0;left=0;bottom=0;right=0;align=left;spacingLeft=6;fontStyle=5;overflow=hidden;html=1;whiteSpace=wrap;" vertex="1" parent="N8_u_hGt2kkmTam4svqG-61">
          <mxGeometry x="155" width="150" height="30" as="geometry">
            <mxRectangle width="150" height="30" as="alternateBounds" />
          </mxGeometry>
        </mxCell>
        <mxCell id="N8_u_hGt2kkmTam4svqG-78" value="ShoppCart" style="shape=table;startSize=30;container=1;collapsible=1;childLayout=tableLayout;fixedRows=1;rowLines=0;fontStyle=1;align=center;resizeLast=1;html=1;whiteSpace=wrap;" vertex="1" parent="1">
          <mxGeometry x="25" y="390" width="305" height="200" as="geometry" />
        </mxCell>
        <mxCell id="N8_u_hGt2kkmTam4svqG-79" value="" style="shape=tableRow;horizontal=0;startSize=0;swimlaneHead=0;swimlaneBody=0;fillColor=none;collapsible=0;dropTarget=0;points=[[0,0.5],[1,0.5]];portConstraint=eastwest;top=0;left=0;right=0;bottom=0;html=1;" vertex="1" parent="N8_u_hGt2kkmTam4svqG-78">
          <mxGeometry y="30" width="305" height="30" as="geometry" />
        </mxCell>
        <mxCell id="N8_u_hGt2kkmTam4svqG-80" value="Responsability" style="shape=partialRectangle;connectable=0;fillColor=none;top=0;left=0;bottom=0;right=0;fontStyle=1;overflow=hidden;html=1;whiteSpace=wrap;" vertex="1" parent="N8_u_hGt2kkmTam4svqG-79">
          <mxGeometry width="160" height="30" as="geometry">
            <mxRectangle width="160" height="30" as="alternateBounds" />
          </mxGeometry>
        </mxCell>
        <mxCell id="N8_u_hGt2kkmTam4svqG-81" value="Collaborators" style="shape=partialRectangle;connectable=0;fillColor=none;top=0;left=0;bottom=0;right=0;align=left;spacingLeft=6;fontStyle=5;overflow=hidden;html=1;whiteSpace=wrap;" vertex="1" parent="N8_u_hGt2kkmTam4svqG-79">
          <mxGeometry x="160" width="145" height="30" as="geometry">
            <mxRectangle width="145" height="30" as="alternateBounds" />
          </mxGeometry>
        </mxCell>
        <mxCell id="N8_u_hGt2kkmTam4svqG-82" value="" style="shape=tableRow;horizontal=0;startSize=0;swimlaneHead=0;swimlaneBody=0;fillColor=none;collapsible=0;dropTarget=0;points=[[0,0.5],[1,0.5]];portConstraint=eastwest;top=0;left=0;right=0;bottom=1;html=1;" vertex="1" parent="N8_u_hGt2kkmTam4svqG-78">
          <mxGeometry y="60" width="305" height="140" as="geometry" />
        </mxCell>
        <mxCell id="N8_u_hGt2kkmTam4svqG-83" value="Provide:&lt;br&gt;- Adding items into the shopping cart&lt;br&gt;- Adding the total money to pay&lt;br&gt;- Removing items from the shopping cart" style="shape=partialRectangle;connectable=0;fillColor=none;top=0;left=0;bottom=0;right=0;fontStyle=1;overflow=hidden;html=1;whiteSpace=wrap;" vertex="1" parent="N8_u_hGt2kkmTam4svqG-82">
          <mxGeometry width="160" height="140" as="geometry">
            <mxRectangle width="160" height="140" as="alternateBounds" />
          </mxGeometry>
        </mxCell>
        <mxCell id="N8_u_hGt2kkmTam4svqG-84" value="ShowCategories" style="shape=partialRectangle;connectable=0;fillColor=none;top=0;left=0;bottom=0;right=0;align=left;spacingLeft=6;fontStyle=5;overflow=hidden;html=1;whiteSpace=wrap;" vertex="1" parent="N8_u_hGt2kkmTam4svqG-82">
          <mxGeometry x="160" width="145" height="140" as="geometry">
            <mxRectangle width="145" height="140" as="alternateBounds" />
          </mxGeometry>
        </mxCell>
        <mxCell id="N8_u_hGt2kkmTam4svqG-85" value="Reviews" style="shape=table;startSize=30;container=1;collapsible=1;childLayout=tableLayout;fixedRows=1;rowLines=0;fontStyle=1;align=center;resizeLast=1;html=1;whiteSpace=wrap;" vertex="1" parent="1">
          <mxGeometry x="25" y="180" width="305" height="200" as="geometry" />
        </mxCell>
        <mxCell id="N8_u_hGt2kkmTam4svqG-86" value="" style="shape=tableRow;horizontal=0;startSize=0;swimlaneHead=0;swimlaneBody=0;fillColor=none;collapsible=0;dropTarget=0;points=[[0,0.5],[1,0.5]];portConstraint=eastwest;top=0;left=0;right=0;bottom=0;html=1;" vertex="1" parent="N8_u_hGt2kkmTam4svqG-85">
          <mxGeometry y="30" width="305" height="30" as="geometry" />
        </mxCell>
        <mxCell id="N8_u_hGt2kkmTam4svqG-87" value="Responsability" style="shape=partialRectangle;connectable=0;fillColor=none;top=0;left=0;bottom=0;right=0;fontStyle=1;overflow=hidden;html=1;whiteSpace=wrap;" vertex="1" parent="N8_u_hGt2kkmTam4svqG-86">
          <mxGeometry width="175" height="30" as="geometry">
            <mxRectangle width="175" height="30" as="alternateBounds" />
          </mxGeometry>
        </mxCell>
        <mxCell id="N8_u_hGt2kkmTam4svqG-88" value="Collaborators" style="shape=partialRectangle;connectable=0;fillColor=none;top=0;left=0;bottom=0;right=0;align=left;spacingLeft=6;fontStyle=5;overflow=hidden;html=1;whiteSpace=wrap;" vertex="1" parent="N8_u_hGt2kkmTam4svqG-86">
          <mxGeometry x="175" width="130" height="30" as="geometry">
            <mxRectangle width="130" height="30" as="alternateBounds" />
          </mxGeometry>
        </mxCell>
        <mxCell id="N8_u_hGt2kkmTam4svqG-89" value="" style="shape=tableRow;horizontal=0;startSize=0;swimlaneHead=0;swimlaneBody=0;fillColor=none;collapsible=0;dropTarget=0;points=[[0,0.5],[1,0.5]];portConstraint=eastwest;top=0;left=0;right=0;bottom=1;html=1;" vertex="1" parent="N8_u_hGt2kkmTam4svqG-85">
          <mxGeometry y="60" width="305" height="140" as="geometry" />
        </mxCell>
        <mxCell id="N8_u_hGt2kkmTam4svqG-90" value="Provide:&lt;br&gt;- Adding items reviews into a simulated storage&lt;br&gt;- Writing and reading the information&lt;br&gt;- Giving users reviews to other users" style="shape=partialRectangle;connectable=0;fillColor=none;top=0;left=0;bottom=0;right=0;fontStyle=1;overflow=hidden;html=1;whiteSpace=wrap;" vertex="1" parent="N8_u_hGt2kkmTam4svqG-89">
          <mxGeometry width="175" height="140" as="geometry">
            <mxRectangle width="175" height="140" as="alternateBounds" />
          </mxGeometry>
        </mxCell>
        <mxCell id="N8_u_hGt2kkmTam4svqG-91" value="ShowCategories" style="shape=partialRectangle;connectable=0;fillColor=none;top=0;left=0;bottom=0;right=0;align=left;spacingLeft=6;fontStyle=5;overflow=hidden;html=1;whiteSpace=wrap;" vertex="1" parent="N8_u_hGt2kkmTam4svqG-89">
          <mxGeometry x="175" width="130" height="140" as="geometry">
            <mxRectangle width="130" height="140" as="alternateBounds" />
          </mxGeometry>
        </mxCell>
      </root>
    </mxGraphModel>
  </diagram>
</mxfile>
